<svg xmlns="http://www.w3.org/2000/svg" xmlns:xlink="http://www.w3.org/1999/xlink" id="Layer_1" x="0px" y="0px" viewBox="0 0 669.5 127.5" style="enable-background:new 0 0 669.5 127.5;" xml:space="preserve"><style type="text/css">	.st0{fill:#3A3A3A;}	.st1{fill:none;}	.st2{enable-background:new    ;}</style><path class="st0" d="M131.4,65.7C131.4,29.4,101.9,0,65.7,0S0,29.4,0,65.7c0,3.6,0.3,7.3,0.9,10.8c21.1-16.4,63.5-39.4,122.2-39l0,0 c-4.7,0-69.3,2.1-88,86.2c2.7,1.4,5.6,2.7,8.5,3.7c3.9-23.7,20.1-85.4,81.4-90c0,0-29.9,33.6-24.8,84.1 C119.5,109.6,131.3,88.5,131.4,65.7z"></path><line class="st1" x1="161.5" y1="99.4" x2="211.6" y2="99.4"></line><rect x="161.5" y="98.3" class="st0" width="50.2" height="2"></rect><rect x="619.3" y="98.3" class="st0" width="50.2" height="2"></rect><path class="st0" d="M192.7,65.8h-1.6l-2.8-4.3c-1.2,1.5-2.6,2.8-4.3,3.7c-1.7,0.9-3.7,1.4-5.6,1.4h-2.8c-5.4,0-10.2-3.2-12.3-8.1 c-0.7-1.6-1.1-3.4-1.1-5.2V24.1c0-1.8,0.3-3.6,1.1-5.2c2-5,6.9-8.2,12.2-8.1h3.9c1.8,0,3.5,0.3,5.2,1c1.6,0.7,3,1.6,4.2,2.9 c1.2,1.2,2.2,2.7,2.9,4.2c0.7,1.6,1,3.4,1,5.2v2.2l-4.9,0.8v-2.9c0-1.2-0.2-2.3-0.7-3.4c-0.9-2.1-2.5-3.7-4.6-4.6 c-1.1-0.5-2.2-0.7-3.4-0.7h-3.4c-1.2,0-2.3,0.2-3.4,0.7c-1,0.5-1.9,1.1-2.7,1.9c-1.7,1.6-2.6,3.8-2.6,6.1v29.1 c0,1.2,0.2,2.3,0.7,3.4c0.9,2.1,2.6,3.7,4.6,4.6c1.1,0.5,2.2,0.7,3.4,0.7h3.4c1.2,0,2.3-0.2,3.4-0.7c1-0.4,2-1.1,2.8-1.9 c0.8-0.8,1.4-1.7,1.9-2.8c0.5-1.1,0.7-2.2,0.7-3.4V42h-8.7v-4.7h13.6L192.7,65.8z"></path><path class="st0" d="M203.5,65.8V11.6h4.9v49.6h20.8v4.7H203.5z"></path><path class="st0" d="M265.7,58.5c-1.4,3.2-3.9,5.7-7.1,7.1c-1.6,0.7-3.4,1-5.2,1h-3.9c-7.3,0.1-13.2-5.7-13.3-12.9 c0-0.1,0-0.2,0-0.3V24.1c-0.1-3.5,1.3-6.9,3.9-9.4c1.2-1.2,2.7-2.2,4.3-2.9c1.6-0.7,3.4-1,5.2-1h3.9c3.5,0,6.9,1.3,9.4,3.9 c2.5,2.5,3.9,5.9,3.9,9.4v29.1C266.7,55,266.3,56.8,265.7,58.5z M261.8,24.1c0-1.2-0.2-2.3-0.7-3.4c-0.9-2.1-2.5-3.7-4.6-4.6 c-1.1-0.5-2.2-0.7-3.4-0.7h-3.4c-1.2,0-2.3,0.2-3.4,0.7c-1,0.4-2,1.1-2.8,1.9c-1.7,1.6-2.6,3.8-2.6,6.1v29.1c0,1.2,0.2,2.3,0.7,3.4 c0.5,1,1.1,2,1.9,2.8c0.8,0.8,1.7,1.4,2.8,1.9c1.1,0.5,2.2,0.7,3.4,0.7h3.4c1.2,0,2.3-0.2,3.4-0.7c1-0.4,2-1.1,2.7-1.9 c0.8-0.8,1.4-1.7,1.9-2.8c0.5-1.1,0.7-2.2,0.7-3.4L261.8,24.1z"></path><path class="st0" d="M307.9,57.7c-2.1,5-6.9,8.2-12.3,8.1h-17.2V11.6h17.2c1.8,0,3.6,0.3,5.2,1c4.9,2.1,8.2,7,8.2,12.4v0.5 c0,1.2-0.2,2.5-0.5,3.7c-0.3,1.2-0.8,2.3-1.5,3.3c-0.6,1-1.4,1.9-2.2,2.7c-0.9,0.8-1.8,1.5-2.9,2.1c1.1,0.5,2,1.2,2.9,2.1 c1.7,1.7,3,3.7,3.7,6c0.3,1.2,0.5,2.4,0.5,3.7v3.5C308.9,54.3,308.6,56,307.9,57.7z M304,24.9c0-1.2-0.2-2.3-0.7-3.4 c-0.4-1-1.1-2-1.9-2.8c-0.8-0.8-1.7-1.4-2.8-1.9c-1.1-0.5-2.2-0.7-3.4-0.7h-12v18.7h12.1c1.2,0,2.3-0.2,3.4-0.7c1-0.4,2-1.1,2.8-1.9 c0.8-0.8,1.4-1.7,1.9-2.8c0.5-1.1,0.7-2.2,0.7-3.4L304,24.9z M304,48.2c0-1.2-0.2-2.3-0.7-3.4c-0.4-1-1.1-2-1.9-2.8 c-0.8-0.8-1.7-1.4-2.8-1.8c-1.1-0.5-2.2-0.7-3.4-0.7h-12v21.6h12.1c1.2,0,2.3-0.2,3.4-0.7c1-0.4,2-1.1,2.8-1.9 c1.6-1.6,2.6-3.8,2.5-6.1V48.2z"></path><path class="st0" d="M338.6,53.2h-17.2l-3.6,12.6h-5.1l15.9-54.3h2.6l16,54.3h-5L338.6,53.2z M322.7,48.5h14.6l-7.1-25l-0.1-2 l-0.1,2L322.7,48.5z"></path><path class="st0" d="M353.4,65.8V11.6h4.9v49.6H379v4.7H353.4z"></path><path class="st0" d="M433.3,58.5c-1.4,3.2-3.9,5.7-7.1,7.1c-1.6,0.7-3.4,1-5.2,1h-3.9c-5.4,0-10.2-3.2-12.3-8.1 c-0.7-1.6-1.1-3.4-1-5.2V24.1c0-1.8,0.3-3.6,1-5.2c2.1-4.9,6.9-8.1,12.3-8.1h3.8c1.8,0,3.5,0.3,5.2,1c1.6,0.7,3,1.6,4.2,2.9 c1.2,1.2,2.2,2.7,2.9,4.2c0.7,1.6,1,3.4,1,5.2v2.2l-4.9,0.7v-2.9c0-1.2-0.2-2.3-0.7-3.4c-0.9-2.1-2.5-3.7-4.6-4.6 c-1.1-0.5-2.2-0.7-3.4-0.7h-3.3c-1.2,0-2.3,0.2-3.4,0.7c-1,0.4-2,1.1-2.8,1.9c-1.6,1.6-2.6,3.8-2.5,6.1v29.1c0,1.2,0.2,2.3,0.7,3.4 c0.9,2.1,2.5,3.7,4.6,4.6c1.1,0.5,2.2,0.7,3.4,0.7h3.4c1.2,0,2.3-0.2,3.4-0.7c1-0.4,2-1.1,2.8-1.9c0.8-0.8,1.4-1.7,1.9-2.8 c0.5-1.1,0.7-2.2,0.7-3.4v-3l4.9,0.8v2.2C434.4,55,434,56.8,433.3,58.5z"></path><path class="st0" d="M470.9,65.8V41h-20.8v24.8h-4.9V11.6h4.9v24.8h20.8V11.6h4.9v54.3H470.9z"></path><path class="st0" d="M508.5,53.2h-17.2l-3.6,12.6h-5.1l15.9-54.3h2.6l16,54.3h-5L508.5,53.2z M492.7,48.5h14.6l-7.2-25l-0.1-2 l-0.1,2L492.7,48.5z"></path><path class="st0" d="M549.6,65.8l-14.7-23.2h-6.7v23.2h-4.9V11.6h17.2c1.8,0,3.5,0.3,5.2,1c1.6,0.7,3,1.7,4.3,2.9 c2.5,2.5,3.9,5.9,3.9,9.5v4.4c0,3.5-1.4,7-3.9,9.5c-1.2,1.2-2.7,2.2-4.2,2.9c-1.6,0.7-3.4,1-5.2,1l14.7,23.2L549.6,65.8z M549,24.9 c0-1.2-0.2-2.3-0.7-3.4c-0.4-1-1.1-2-1.9-2.8c-1.6-1.6-3.8-2.6-6.1-2.5h-12.1V38h12.1c2.3,0,4.5-0.9,6.1-2.6 c0.8-0.8,1.4-1.7,1.9-2.8c0.5-1.1,0.7-2.2,0.7-3.4L549,24.9z"></path><path class="st0" d="M577.8,16.2v49.6h-4.9V16.2h-12.9v-4.7h30.8v4.7L577.8,16.2z"></path><path class="st0" d="M598.5,65.8V11.6H629v4.7h-25.7v20.2h20.8V41h-20.8v20.1H629v4.7H598.5z"></path><path class="st0" d="M663.8,65.8l-14.7-23.2h-6.7v23.2h-4.9V11.6h17.2c1.8,0,3.5,0.3,5.2,1c3.2,1.4,5.8,3.9,7.1,7.2 c0.7,1.6,1,3.4,1,5.2v4.4c0,1.8-0.3,3.6-1,5.2c-1.4,3.2-3.9,5.7-7.1,7.1c-1.6,0.7-3.4,1-5.2,1l14.7,23.2L663.8,65.8z M663.2,24.9 c0-1.2-0.2-2.3-0.7-3.4c-0.4-1-1.1-2-1.8-2.8c-0.8-0.8-1.7-1.4-2.8-1.9c-1.1-0.5-2.2-0.7-3.4-0.7h-12.1V38h12.1 c1.2,0,2.3-0.2,3.4-0.7c1-0.5,2-1.1,2.8-1.9c0.8-0.8,1.4-1.7,1.8-2.8c0.5-1.1,0.7-2.2,0.7-3.4V24.9z"></path><g class="st2">	<path class="st0" d="M231.6,97.1c0-2,0.8-3.7,2.4-5s3.7-2,6.3-2c3.7,0,6.7,1.1,9,3.4l-2.1,2.7c-1.8-1.9-4.2-2.9-7.1-2.9  c-1.4,0-2.5,0.3-3.3,1c-0.8,0.6-1.3,1.4-1.3,2.3c0,0.9,0.4,1.7,1.1,2.2c0.7,0.5,2.3,1.1,4.6,1.7c1.1,0.3,1.9,0.5,2.5,0.7  c0.6,0.2,1.3,0.5,2.3,0.9c0.9,0.4,1.6,0.9,2.1,1.4c0.5,0.5,0.9,1.1,1.3,1.9c0.4,0.8,0.6,1.7,0.6,2.7c0,2.1-0.8,3.9-2.3,5.3  c-1.5,1.4-3.9,2.1-7,2.1c-4.1,0-7.3-1.3-9.7-3.9l2.1-2.8c2.1,2.3,4.7,3.5,7.8,3.5c1.8,0,3.2-0.4,4.1-1.1s1.3-1.6,1.3-2.6  c0-1.7-0.8-2.7-2.4-3.2s-2.8-0.8-3.6-1c-0.8-0.2-1.4-0.4-1.7-0.5c-0.4-0.1-0.9-0.3-1.6-0.5c-0.7-0.2-1.5-0.6-2.3-1.1  c-0.8-0.5-1.5-1.1-2-2S231.6,98.3,231.6,97.1z"></path>	<path class="st0" d="M265.1,115V90.4h16.5v3.2h-12.9v7.2h12.6v3.2h-12.6v7.7h12.9v3.2H265.1z"></path></g><g class="st2">	<path class="st0" d="M301,105.6v9.5h-3.7V90.4h10.4c2.3,0,4.2,0.7,5.7,2.1c1.5,1.4,2.2,3.2,2.2,5.4s-0.6,3.9-1.8,5.1  c-1.2,1.2-2.6,2-4.3,2.2l6.3,9.9h-4.3l-5.9-9.5H301z M310.5,101.1c0.9-0.8,1.3-1.8,1.3-3.1c0-1.3-0.4-2.3-1.3-3.1s-2-1.2-3.3-1.2  H301v8.6h6.2C308.6,102.3,309.7,101.9,310.5,101.1z"></path></g><g class="st2">	<path class="st0" d="M338.1,115l-9.8-24.6h4.2l7.9,20.6l7.9-20.6h4.2l-9.8,24.6H338.1z"></path>	<path class="st0" d="M366.5,115V90.4h3.7V115H366.5z"></path>	<path class="st0" d="M398.5,115.5c-3.6,0-6.7-1.2-9.1-3.6c-2.4-2.4-3.7-5.4-3.7-9.2c0-3.7,1.2-6.8,3.7-9.2c2.4-2.4,5.5-3.6,9.1-3.6  c4.1,0,7.3,1.7,9.6,5.2l-3.1,1.7c-0.7-1.1-1.6-1.9-2.7-2.6c-1.2-0.7-2.4-1-3.8-1c-2.6,0-4.7,0.9-6.4,2.7c-1.7,1.8-2.5,4-2.5,6.8  s0.8,5,2.5,6.8c1.7,1.8,3.8,2.7,6.4,2.7c1.4,0,2.6-0.3,3.8-1c1.2-0.7,2.1-1.5,2.7-2.6l3.1,1.7C405.8,113.7,402.6,115.5,398.5,115.5  z"></path>	<path class="st0" d="M422.9,115V90.4h16.5v3.2h-12.9v7.2h12.6v3.2h-12.6v7.7h12.9v3.2H422.9z"></path>	<path class="st0" d="M454.4,97.1c0-2,0.8-3.7,2.4-5s3.7-2,6.3-2c3.7,0,6.7,1.1,9,3.4l-2.1,2.7c-1.8-1.9-4.2-2.9-7.1-2.9  c-1.4,0-2.5,0.3-3.3,1c-0.8,0.6-1.3,1.4-1.3,2.3c0,0.9,0.4,1.7,1.1,2.2c0.7,0.5,2.3,1.1,4.6,1.7c1.1,0.3,1.9,0.5,2.5,0.7  c0.6,0.2,1.3,0.5,2.3,0.9s1.6,0.9,2.1,1.4c0.5,0.5,0.9,1.1,1.3,1.9c0.4,0.8,0.6,1.7,0.6,2.7c0,2.1-0.8,3.9-2.3,5.3s-3.9,2.1-7,2.1  c-4.1,0-7.3-1.3-9.7-3.9l2.1-2.8c2.1,2.3,4.7,3.5,7.8,3.5c1.8,0,3.2-0.4,4.1-1.1c0.9-0.8,1.3-1.6,1.3-2.6c0-1.7-0.8-2.7-2.4-3.2  s-2.8-0.8-3.6-1c-0.8-0.2-1.4-0.4-1.7-0.5c-0.4-0.1-0.9-0.3-1.6-0.5s-1.5-0.6-2.3-1.1s-1.5-1.1-2-2S454.4,98.3,454.4,97.1z"></path>	<path class="st0" d="M508.5,115V90.4h3.7V115H508.5z"></path>	<path class="st0" d="M532.5,115h-3.7V90.4h3.8l13.4,18.2V90.4h3.7V115h-3.6l-13.6-18.6V115z"></path>	<path class="st0" d="M577.9,115.5c-3.6,0-6.7-1.2-9.1-3.6c-2.4-2.4-3.7-5.4-3.7-9.2c0-3.7,1.2-6.8,3.7-9.2c2.4-2.4,5.5-3.6,9.1-3.6  c4.1,0,7.3,1.7,9.6,5.2l-3.1,1.7c-0.7-1.1-1.6-1.9-2.7-2.6c-1.2-0.7-2.4-1-3.8-1c-2.6,0-4.7,0.9-6.4,2.7c-1.7,1.8-2.5,4-2.5,6.8  s0.8,5,2.5,6.8c1.7,1.8,3.8,2.7,6.4,2.7c1.4,0,2.6-0.3,3.8-1c1.2-0.7,2.1-1.5,2.7-2.6l3.1,1.7C585.2,113.7,582,115.5,577.9,115.5z"></path></g><path class="st0" d="M599.5,110.8c1.3,0,2.3,1,2.3,2.3c0,1.3-1,2.3-2.3,2.3c-1.3,0-2.3-1.1-2.3-2.3 C597.2,111.8,598.3,110.8,599.5,110.8z"></path></svg>